STARTFONT 2.1
FONT -Monotype-Bookman Old Style-Regular-R-Normal--17-120-100-100-P-84-iso8859-4
SIZE 12 100 100
FONTBOUNDINGBOX 24 20 -3 -4

STARTPROPERTIES 24
FOUNDRY "Monotype"
FAMILY_NAME "Bookman Old Style"
WEIGHT_NAME "Regular"
SLANT "R"
SETWIDTH_NAME "Normal"
ADD_STYLE_NAME ""
PIXEL_SIZE 17
POINT_SIZE 120
RESOLUTION_X 100
RESOLUTION_Y 100
SPACING "P"
AVERAGE_WIDTH 84
CHARSET_REGISTRY "iso8859"
CHARSET_ENCODING "4"
FACE_NAME "Bookman Old Style ISO Latin4"
_DEC_DEVICE_FONTNAMES "PS=bookmanoldstyle-lat4"
COPYRIGHT "Copyright (c) 1994 Monotype Typography Ltd."
CAP_HEIGHT 13
X_HEIGHT 9
WEIGHT 10
QUAD_WIDTH 12
DEFAULT_CHAR 160
FONT_DESCENT 4
FONT_ASCENT 16
ENDPROPERTIES

CHARS 191

STARTCHAR space
ENCODING 32
SWIDTH 320 0
DWIDTH 5 0
BBX 0 0 0 0
BITMAP
ENDCHAR

STARTCHAR exclam
ENCODING 33
SWIDTH 300 0
DWIDTH 5 0
BBX 2 13 2 0
BITMAP
C0
C0
C0
C0
C0
C0
C0
C0
C0
C0
00
C0
C0
ENDCHAR

STARTCHAR quotedbl
ENCODING 34
SWIDTH 380 0
DWIDTH 6 0
BBX 4 4 1 8
BITMAP
90
90
90
90
ENDCHAR

STARTCHAR numbersign
ENCODING 35
SWIDTH 600 0
DWIDTH 10 0
BBX 10 11 0 0
BITMAP
1B00
1B00
1B00
7FC0
1B00
3600
3600
FF80
3600
3600
3600
ENDCHAR

STARTCHAR dollar
ENCODING 36
SWIDTH 620 0
DWIDTH 11 0
BBX 9 16 1 -2
BITMAP
0800
0800
7D00
EF00
CB00
C900
E800
7C00
1F00
0B80
8980
C980
EB00
BE00
0800
0800
ENDCHAR

STARTCHAR percent
ENCODING 37
SWIDTH 900 0
DWIDTH 15 0
BBX 14 12 1 0
BITMAP
7020
D820
8840
8880
8880
D938
726C
0244
0444
0844
086C
1038
ENDCHAR

STARTCHAR ampersand
ENCODING 38
SWIDTH 800 0
DWIDTH 14 0
BBX 13 12 1 0
BITMAP
1C00
3600
2200
3600
1CE0
2640
6240
C340
C190
C198
6348
3E70
ENDCHAR

STARTCHAR quoteright
ENCODING 39
SWIDTH 220 0
DWIDTH 4 0
BBX 3 5 0 8
BITMAP
60
60
20
40
80
ENDCHAR

STARTCHAR parenleft
ENCODING 40
SWIDTH 300 0
DWIDTH 5 0
BBX 3 17 1 -4
BITMAP
20
20
60
40
C0
C0
C0
C0
C0
C0
C0
C0
C0
40
60
20
20
ENDCHAR

STARTCHAR parenright
ENCODING 41
SWIDTH 300 0
DWIDTH 5 0
BBX 3 17 1 -4
BITMAP
80
80
C0
40
60
60
60
60
60
60
60
60
60
40
C0
80
80
ENDCHAR

STARTCHAR asterisk
ENCODING 42
SWIDTH 440 0
DWIDTH 7 0
BBX 7 6 0 6
BITMAP
10
10
FE
10
28
6C
ENDCHAR

STARTCHAR plus
ENCODING 43
SWIDTH 600 0
DWIDTH 10 0
BBX 9 9 1 1
BITMAP
0800
0800
0800
0800
FF80
0800
0800
0800
0800
ENDCHAR

STARTCHAR comma
ENCODING 44
SWIDTH 320 0
DWIDTH 5 0
BBX 3 5 1 -3
BITMAP
60
60
20
40
80
ENDCHAR

STARTCHAR minus
ENCODING 45
SWIDTH 600 0
DWIDTH 10 0
BBX 8 1 1 5
BITMAP
FF
ENDCHAR

STARTCHAR period
ENCODING 46
SWIDTH 320 0
DWIDTH 5 0
BBX 2 2 2 0
BITMAP
C0
C0
ENDCHAR

STARTCHAR slash
ENCODING 47
SWIDTH 600 0
DWIDTH 10 0
BBX 7 17 2 -4
BITMAP
02
06
04
04
0C
08
08
18
10
10
30
20
20
60
40
40
C0
ENDCHAR

STARTCHAR zero
ENCODING 48
SWIDTH 620 0
DWIDTH 11 0
BBX 9 12 1 0
BITMAP
1C00
6300
6300
C180
C180
C180
C180
C180
C180
6300
6300
1C00
ENDCHAR

STARTCHAR one
ENCODING 49
SWIDTH 620 0
DWIDTH 11 0
BBX 6 12 3 0
BITMAP
10
F0
30
30
30
30
30
30
30
30
30
FC
ENDCHAR

STARTCHAR two
ENCODING 50
SWIDTH 620 0
DWIDTH 11 0
BBX 8 12 1 0
BITMAP
3C
46
83
83
83
06
06
0C
18
31
61
FF
ENDCHAR

STARTCHAR three
ENCODING 51
SWIDTH 620 0
DWIDTH 11 0
BBX 9 12 1 0
BITMAP
3C00
4600
8300
0300
0600
1E00
0300
0180
0180
C180
6300
3E00
ENDCHAR

STARTCHAR four
ENCODING 52
SWIDTH 620 0
DWIDTH 11 0
BBX 9 12 1 0
BITMAP
0200
0600
0E00
1600
2600
4600
8600
FF80
0600
0600
0600
0600
ENDCHAR

STARTCHAR five
ENCODING 53
SWIDTH 620 0
DWIDTH 11 0
BBX 8 12 2 0
BITMAP
FE
80
80
80
F8
9E
07
03
03
83
C6
7C
ENDCHAR

STARTCHAR six
ENCODING 54
SWIDTH 620 0
DWIDTH 11 0
BBX 9 12 1 0
BITMAP
0F00
3000
6000
4000
DE00
E300
C180
C180
C180
C180
6300
3E00
ENDCHAR

STARTCHAR seven
ENCODING 55
SWIDTH 620 0
DWIDTH 11 0
BBX 9 12 1 0
BITMAP
7F80
C180
8300
0200
0600
0C00
0C00
1800
1800
3000
3000
3000
ENDCHAR

STARTCHAR eight
ENCODING 56
SWIDTH 620 0
DWIDTH 11 0
BBX 9 12 1 0
BITMAP
1C00
2200
6300
6300
6300
3E00
6300
C180
C180
C180
6300
3E00
ENDCHAR

STARTCHAR nine
ENCODING 57
SWIDTH 620 0
DWIDTH 11 0
BBX 9 12 1 0
BITMAP
3E00
6300
C180
C180
C180
C180
6380
3D80
0100
0300
0600
7800
ENDCHAR

STARTCHAR colon
ENCODING 58
SWIDTH 320 0
DWIDTH 5 0
BBX 2 8 2 0
BITMAP
C0
C0
00
00
00
00
C0
C0
ENDCHAR

STARTCHAR semicolon
ENCODING 59
SWIDTH 320 0
DWIDTH 5 0
BBX 3 11 1 -3
BITMAP
60
60
00
00
00
00
60
60
20
40
80
ENDCHAR

STARTCHAR less
ENCODING 60
SWIDTH 600 0
DWIDTH 10 0
BBX 8 6 1 3
BITMAP
07
3C
C0
E0
3C
07
ENDCHAR

STARTCHAR equal
ENCODING 61
SWIDTH 600 0
DWIDTH 10 0
BBX 8 4 1 4
BITMAP
FF
00
00
FF
ENDCHAR

STARTCHAR greater
ENCODING 62
SWIDTH 600 0
DWIDTH 10 0
BBX 8 6 1 3
BITMAP
E0
3C
07
03
3C
E0
ENDCHAR

STARTCHAR question
ENCODING 63
SWIDTH 540 0
DWIDTH 9 0
BBX 8 13 1 0
BITMAP
78
C6
83
03
03
03
06
3C
20
20
00
30
30
ENDCHAR

STARTCHAR at
ENCODING 64
SWIDTH 820 0
DWIDTH 14 0
BBX 14 16 0 -4
BITMAP
07E0
1810
2008
2004
43A4
4444
8C44
8844
98C4
9188
9B90
4CE4
4004
2008
1830
07C0
ENDCHAR

STARTCHAR A
ENCODING 65
SWIDTH 680 0
DWIDTH 12 0
BBX 11 12 1 0
BITMAP
0600
0600
0B00
0B00
0B00
1180
1180
3F80
2180
20C0
60C0
F1E0
ENDCHAR

STARTCHAR B
ENCODING 66
SWIDTH 740 0
DWIDTH 13 0
BBX 11 12 1 0
BITMAP
FF80
60C0
6060
6060
60C0
7F80
60C0
6060
6060
6060
60C0
FF80
ENDCHAR

STARTCHAR C
ENCODING 67
SWIDTH 740 0
DWIDTH 13 0
BBX 11 12 1 0
BITMAP
0F40
30E0
6060
6020
C000
C000
C000
C000
6000
6020
30C0
0F80
ENDCHAR

STARTCHAR D
ENCODING 68
SWIDTH 800 0
DWIDTH 14 0
BBX 12 12 1 0
BITMAP
FF00
60C0
6060
6060
6030
6030
6030
6030
6060
6060
60C0
FF00
ENDCHAR

STARTCHAR E
ENCODING 69
SWIDTH 720 0
DWIDTH 12 0
BBX 10 12 1 0
BITMAP
FF80
61C0
60C0
6240
6200
7E00
6200
6200
6040
60C0
61C0
FF80
ENDCHAR

STARTCHAR F
ENCODING 70
SWIDTH 640 0
DWIDTH 11 0
BBX 10 12 1 0
BITMAP
FF80
61C0
60C0
6240
6200
7E00
6200
6200
6000
6000
6000
F000
ENDCHAR

STARTCHAR G
ENCODING 71
SWIDTH 800 0
DWIDTH 14 0
BBX 12 12 1 0
BITMAP
0F40
30E0
6060
6020
C000
C000
C0F0
C060
6060
6060
30E0
0F20
ENDCHAR

STARTCHAR H
ENCODING 72
SWIDTH 800 0
DWIDTH 14 0
BBX 12 12 1 0
BITMAP
F0F0
6060
6060
6060
6060
7FE0
6060
6060
6060
6060
6060
F0F0
ENDCHAR

STARTCHAR I
ENCODING 73
SWIDTH 340 0
DWIDTH 6 0
BBX 4 12 1 0
BITMAP
F0
60
60
60
60
60
60
60
60
60
60
F0
ENDCHAR

STARTCHAR J
ENCODING 74
SWIDTH 600 0
DWIDTH 10 0
BBX 9 12 0 0
BITMAP
0780
0300
0300
0300
0300
0300
0300
0300
8300
C300
C600
7C00
ENDCHAR

STARTCHAR K
ENCODING 75
SWIDTH 720 0
DWIDTH 12 0
BBX 11 12 1 0
BITMAP
F1E0
6180
6300
6200
6400
6C00
7C00
6600
6300
6180
61C0
F3E0
ENDCHAR

STARTCHAR L
ENCODING 76
SWIDTH 600 0
DWIDTH 10 0
BBX 9 12 1 0
BITMAP
F000
6000
6000
6000
6000
6000
6000
6000
6080
6180
6380
FF00
ENDCHAR

STARTCHAR M
ENCODING 77
SWIDTH 920 0
DWIDTH 15 0
BBX 13 12 1 0
BITMAP
E038
7070
7070
58F0
58B0
58B0
4D30
4D30
4530
4630
4630
E278
ENDCHAR

STARTCHAR N
ENCODING 78
SWIDTH 740 0
DWIDTH 13 0
BBX 11 12 1 0
BITMAP
F0E0
7040
5840
4C40
4C40
4640
4640
4340
41C0
41C0
40C0
E040
ENDCHAR

STARTCHAR O
ENCODING 79
SWIDTH 800 0
DWIDTH 14 0
BBX 12 12 1 0
BITMAP
0F00
30C0
6060
6060
C030
C030
C030
C030
6060
6060
30C0
0F00
ENDCHAR

STARTCHAR P
ENCODING 80
SWIDTH 620 0
DWIDTH 11 0
BBX 10 12 1 0
BITMAP
FF00
6180
60C0
60C0
60C0
6180
7F00
6000
6000
6000
6000
F000
ENDCHAR

STARTCHAR Q
ENCODING 81
SWIDTH 820 0
DWIDTH 14 0
BBX 12 15 1 -3
BITMAP
0F00
30C0
6060
6060
C030
C030
C030
C030
6060
6060
30C0
0F00
0600
0620
03C0
ENDCHAR

STARTCHAR R
ENCODING 82
SWIDTH 720 0
DWIDTH 12 0
BBX 11 12 1 0
BITMAP
FF00
6180
60C0
60C0
6180
7F00
6C00
6600
6300
6180
61C0
F0E0
ENDCHAR

STARTCHAR S
ENCODING 83
SWIDTH 660 0
DWIDTH 11 0
BBX 9 12 1 0
BITMAP
7D00
E700
C300
C100
E000
7C00
0F00
0380
8180
C180
E300
BE00
ENDCHAR

STARTCHAR T
ENCODING 84
SWIDTH 620 0
DWIDTH 12 0
BBX 10 12 1 0
BITMAP
7F80
CCC0
8C40
0C00
0C00
0C00
0C00
0C00
0C00
0C00
0C00
1E00
ENDCHAR

STARTCHAR U
ENCODING 85
SWIDTH 780 0
DWIDTH 13 0
BBX 11 12 1 0
BITMAP
F0E0
6040
6040
6040
6040
6040
6040
6040
6040
6040
3080
1F00
ENDCHAR

STARTCHAR V
ENCODING 86
SWIDTH 700 0
DWIDTH 12 0
BBX 12 12 0 0
BITMAP
F0F0
6060
6040
3040
3080
1880
1900
1900
0E00
0E00
0400
0400
ENDCHAR

STARTCHAR W
ENCODING 87
SWIDTH 960 0
DWIDTH 16 0
BBX 16 12 0 0
BITMAP
F3C7
6182
6182
3084
31C4
1944
1948
1948
0E70
0E70
0420
0420
ENDCHAR

STARTCHAR X
ENCODING 88
SWIDTH 720 0
DWIDTH 12 0
BBX 12 12 0 0
BITMAP
78F0
3060
18C0
0C80
0D00
0600
0700
0980
1180
30C0
6060
F0F0
ENDCHAR

STARTCHAR Y
ENCODING 89
SWIDTH 640 0
DWIDTH 11 0
BBX 10 12 1 0
BITMAP
F1C0
6080
3100
3100
1A00
1A00
0C00
0C00
0C00
0C00
0C00
1E00
ENDCHAR

STARTCHAR Z
ENCODING 90
SWIDTH 640 0
DWIDTH 11 0
BBX 11 12 0 0
BITMAP
3FC0
70C0
6180
4300
0600
0600
0C00
1800
3020
3060
60E0
FFC0
ENDCHAR

STARTCHAR bracketleft
ENCODING 91
SWIDTH 300 0
DWIDTH 5 0
BBX 3 17 1 -4
BITMAP
E0
C0
C0
C0
C0
C0
C0
C0
C0
C0
C0
C0
C0
C0
C0
C0
E0
ENDCHAR

STARTCHAR backslash
ENCODING 92
SWIDTH 600 0
DWIDTH 10 0
BBX 7 17 2 -4
BITMAP
C0
40
40
60
20
20
30
10
10
18
08
08
0C
04
04
06
02
ENDCHAR

STARTCHAR bracketright
ENCODING 93
SWIDTH 300 0
DWIDTH 5 0
BBX 3 17 1 -4
BITMAP
E0
60
60
60
60
60
60
60
60
60
60
60
60
60
60
60
E0
ENDCHAR

STARTCHAR asciicircum
ENCODING 94
SWIDTH 600 0
DWIDTH 10 0
BBX 7 7 2 5
BITMAP
10
38
28
6C
44
C6
82
ENDCHAR

STARTCHAR underscore
ENCODING 95
SWIDTH 500 0
DWIDTH 9 0
BBX 9 1 0 -2
BITMAP
FF80
ENDCHAR

STARTCHAR quoteleft
ENCODING 96
SWIDTH 220 0
DWIDTH 4 0
BBX 3 5 1 8
BITMAP
20
40
80
C0
C0
ENDCHAR

STARTCHAR a
ENCODING 97
SWIDTH 580 0
DWIDTH 10 0
BBX 9 8 1 0
BITMAP
3C00
6600
4600
1E00
6600
C600
CE00
7B80
ENDCHAR

STARTCHAR b
ENCODING 98
SWIDTH 620 0
DWIDTH 11 0
BBX 10 13 1 0
BITMAP
2000
E000
6000
6000
6000
6F00
7180
60C0
60C0
60C0
60C0
7180
6F00
ENDCHAR

STARTCHAR c
ENCODING 99
SWIDTH 520 0
DWIDTH 9 0
BBX 8 8 1 0
BITMAP
3E
63
C1
C0
C0
C0
61
3E
ENDCHAR

STARTCHAR d
ENCODING 100
SWIDTH 620 0
DWIDTH 11 0
BBX 10 13 1 0
BITMAP
0080
0380
0180
0180
0180
3D80
6380
C180
C180
C180
C180
6380
3DC0
ENDCHAR

STARTCHAR e
ENCODING 101
SWIDTH 520 0
DWIDTH 9 0
BBX 8 8 1 0
BITMAP
3C
66
C3
FF
C0
C0
61
3E
ENDCHAR

STARTCHAR f
ENCODING 102
SWIDTH 320 0
DWIDTH 5 0
BBX 6 13 1 0
BITMAP
38
6C
60
60
60
F0
60
60
60
60
60
60
F0
ENDCHAR

STARTCHAR g
ENCODING 103
SWIDTH 540 0
DWIDTH 9 0
BBX 8 12 1 -4
BITMAP
7D
E6
C6
C6
CE
7C
C0
70
7E
87
83
7E
ENDCHAR

STARTCHAR h
ENCODING 104
SWIDTH 660 0
DWIDTH 11 0
BBX 10 13 1 0
BITMAP
2000
E000
6000
6000
6000
6F00
7180
6180
6180
6180
6180
6180
F3C0
ENDCHAR

STARTCHAR i
ENCODING 105
SWIDTH 300 0
DWIDTH 5 0
BBX 4 13 1 0
BITMAP
60
60
00
00
00
20
E0
60
60
60
60
60
F0
ENDCHAR

STARTCHAR j
ENCODING 106
SWIDTH 300 0
DWIDTH 5 0
BBX 5 17 -1 -4
BITMAP
18
18
00
00
00
08
38
18
18
18
18
18
18
18
18
D8
70
ENDCHAR

STARTCHAR k
ENCODING 107
SWIDTH 620 0
DWIDTH 11 0
BBX 10 13 1 0
BITMAP
2000
E000
6000
6000
6000
61C0
6300
6600
6C00
7600
6300
6180
F3C0
ENDCHAR

STARTCHAR l
ENCODING 108
SWIDTH 300 0
DWIDTH 5 0
BBX 4 13 1 0
BITMAP
20
E0
60
60
60
60
60
60
60
60
60
60
F0
ENDCHAR

STARTCHAR m
ENCODING 109
SWIDTH 940 0
DWIDTH 15 0
BBX 14 8 1 0
BITMAP
2F70
F398
6318
6318
6318
6318
6318
F7BC
ENDCHAR

STARTCHAR n
ENCODING 110
SWIDTH 660 0
DWIDTH 11 0
BBX 10 8 1 0
BITMAP
2F00
F180
6180
6180
6180
6180
6180
F3C0
ENDCHAR

STARTCHAR o
ENCODING 111
SWIDTH 560 0
DWIDTH 10 0
BBX 9 8 1 0
BITMAP
3E00
6300
C180
C180
C180
C180
6300
3E00
ENDCHAR

STARTCHAR p
ENCODING 112
SWIDTH 620 0
DWIDTH 11 0
BBX 10 12 1 -4
BITMAP
2F00
F180
60C0
60C0
60C0
60C0
7180
6F00
6000
6000
6000
F000
ENDCHAR

STARTCHAR q
ENCODING 113
SWIDTH 580 0
DWIDTH 11 0
BBX 10 12 1 -4
BITMAP
3D80
6380
C180
C180
C180
C180
6380
3D80
0180
0180
0180
03C0
ENDCHAR

STARTCHAR r
ENCODING 114
SWIDTH 440 0
DWIDTH 7 0
BBX 7 8 1 0
BITMAP
2E
F2
60
60
60
60
60
F0
ENDCHAR

STARTCHAR s
ENCODING 115
SWIDTH 520 0
DWIDTH 8 0
BBX 7 8 1 0
BITMAP
7C
C6
E2
78
1C
86
C6
7C
ENDCHAR

STARTCHAR t
ENCODING 116
SWIDTH 380 0
DWIDTH 7 0
BBX 6 11 1 0
BITMAP
20
60
60
FC
60
60
60
60
60
64
38
ENDCHAR

STARTCHAR u
ENCODING 117
SWIDTH 680 0
DWIDTH 11 0
BBX 10 8 1 0
BITMAP
E380
6180
6180
6180
6180
6180
6380
3DC0
ENDCHAR

STARTCHAR v
ENCODING 118
SWIDTH 520 0
DWIDTH 9 0
BBX 9 8 0 0
BITMAP
F380
6100
3100
3200
1A00
1C00
0C00
0800
ENDCHAR

STARTCHAR w
ENCODING 119
SWIDTH 780 0
DWIDTH 13 0
BBX 13 8 0 0
BITMAP
F738
6210
3310
3320
1BA0
1DC0
0CC0
0880
ENDCHAR

STARTCHAR x
ENCODING 120
SWIDTH 560 0
DWIDTH 10 0
BBX 10 8 0 0
BITMAP
7B80
3100
1A00
0C00
0E00
1300
6180
F3C0
ENDCHAR

STARTCHAR y
ENCODING 121
SWIDTH 540 0
DWIDTH 9 0
BBX 9 12 0 -4
BITMAP
F380
6100
6100
3300
3200
1A00
1C00
0C00
0800
1800
D000
6000
ENDCHAR

STARTCHAR z
ENCODING 122
SWIDTH 480 0
DWIDTH 9 0
BBX 8 8 1 0
BITMAP
3F
63
46
0C
18
31
63
FE
ENDCHAR

STARTCHAR braceleft
ENCODING 123
SWIDTH 280 0
DWIDTH 5 0
BBX 5 17 0 -4
BITMAP
08
10
30
30
30
30
30
60
80
60
30
30
30
30
30
10
08
ENDCHAR

STARTCHAR bar
ENCODING 124
SWIDTH 600 0
DWIDTH 10 0
BBX 2 17 5 -4
BITMAP
C0
C0
C0
C0
C0
C0
C0
C0
C0
C0
C0
C0
C0
C0
C0
C0
C0
ENDCHAR

STARTCHAR braceright
ENCODING 125
SWIDTH 280 0
DWIDTH 5 0
BBX 5 17 0 -4
BITMAP
80
40
60
60
60
60
60
30
08
30
60
60
60
60
60
40
80
ENDCHAR

STARTCHAR asciitilde
ENCODING 126
SWIDTH 600 0
DWIDTH 10 0
BBX 7 2 2 5
BITMAP
76
DC
ENDCHAR

STARTCHAR space
ENCODING 160
SWIDTH 320 0
DWIDTH 6 0
BBX 0 0 0 0
BITMAP
ENDCHAR

STARTCHAR Aogonek
ENCODING 161
SWIDTH 680 0
DWIDTH 12 0
BBX 11 15 1 -3
BITMAP
0600
0600
0B00
0B00
0B00
1180
1180
3F80
2180
20C0
60C0
F1E0
0080
0080
0060
ENDCHAR

STARTCHAR afii240
ENCODING 162
SWIDTH 500 0
DWIDTH 9 0
BBX 8 8 1 0
BITMAP
23
E6
6C
78
78
6C
66
EF
ENDCHAR

STARTCHAR Rcommaaccent
ENCODING 163
SWIDTH 720 0
DWIDTH 12 0
BBX 11 16 1 -4
BITMAP
FF00
6180
60C0
60C0
6180
7F00
6C00
6600
6300
6180
61C0
F0E0
0000
0600
0200
0400
ENDCHAR

STARTCHAR currency
ENCODING 164
SWIDTH 600 0
DWIDTH 10 0
BBX 7 7 2 2
BITMAP
BA
44
82
82
82
44
BA
ENDCHAR

STARTCHAR Itilde
ENCODING 165
SWIDTH 340 0
DWIDTH 6 0
BBX 6 15 0 0
BITMAP
74
B8
00
78
30
30
30
30
30
30
30
30
30
30
78
ENDCHAR

STARTCHAR Lcommaaccent
ENCODING 166
SWIDTH 600 0
DWIDTH 10 0
BBX 9 16 1 -4
BITMAP
F000
6000
6000
6000
6000
6000
6000
6000
6080
6180
6380
FF00
0000
1800
0800
1000
ENDCHAR

STARTCHAR section
ENCODING 167
SWIDTH 520 0
DWIDTH 9 0
BBX 7 15 1 -3
BITMAP
7C
C6
86
C0
30
5C
86
82
C2
7C
0E
82
82
C6
7C
ENDCHAR

STARTCHAR hungarumlaut
ENCODING 168
SWIDTH 380 0
DWIDTH 6 0
BBX 6 2 0 10
BITMAP
6C
D8
ENDCHAR

STARTCHAR Scaron
ENCODING 169
SWIDTH 660 0
DWIDTH 11 0
BBX 9 15 1 0
BITMAP
3600
1C00
0000
7D00
E700
C300
C100
E000
7C00
0F00
0380
8180
C180
E300
BE00
ENDCHAR

STARTCHAR Emacron
ENCODING 170
SWIDTH 720 0
DWIDTH 12 0
BBX 10 15 1 0
BITMAP
3F00
0000
0000
FF80
61C0
60C0
6240
6200
7E00
6200
6200
6040
60C0
61C0
FF80
ENDCHAR

STARTCHAR Gcommaaccent
ENCODING 171
SWIDTH 800 0
DWIDTH 14 0
BBX 12 16 1 -4
BITMAP
0F40
30E0
6060
6020
C000
C000
C0F0
C060
6060
6060
30E0
0F20
0000
0600
0200
0400
ENDCHAR

STARTCHAR afii237
ENCODING 172
SWIDTH 611 0
DWIDTH 12 0
BBX 10 12 1 0
BITMAP
7F80
CCC0
8C40
0C00
0C00
7F80
0C00
0C00
0C00
0C00
0C00
1E00
ENDCHAR

STARTCHAR hyphen
ENCODING 173
SWIDTH 400 0
DWIDTH 7 0
BBX 5 1 1 4
BITMAP
F8
ENDCHAR

STARTCHAR Zcaron
ENCODING 174
SWIDTH 640 0
DWIDTH 11 0
BBX 11 15 0 0
BITMAP
1B00
0E00
0000
3FC0
70C0
6180
4300
0600
0600
0C00
1800
3020
3060
60E0
FFC0
ENDCHAR

STARTCHAR macron
ENCODING 175
SWIDTH 440 0
DWIDTH 7 0
BBX 5 1 1 10
BITMAP
F8
ENDCHAR

STARTCHAR degree
ENCODING 176
SWIDTH 400 0
DWIDTH 7 0
BBX 5 5 1 7
BITMAP
70
88
88
88
70
ENDCHAR

STARTCHAR aogonek
ENCODING 177
SWIDTH 580 0
DWIDTH 10 0
BBX 10 11 1 -3
BITMAP
3C00
6600
4600
1E00
6600
C600
CE00
7B80
0100
0100
00C0
ENDCHAR

STARTCHAR ogonek
ENCODING 178
SWIDTH 320 0
DWIDTH 5 0
BBX 3 3 1 -3
BITMAP
80
80
60
ENDCHAR

STARTCHAR rcommaaccent
ENCODING 179
SWIDTH 440 0
DWIDTH 7 0
BBX 7 12 1 -4
BITMAP
2E
F2
60
60
60
60
60
F0
00
60
40
80
ENDCHAR

STARTCHAR acute
ENCODING 180
SWIDTH 340 0
DWIDTH 6 0
BBX 4 2 1 10
BITMAP
70
C0
ENDCHAR

STARTCHAR itilde
ENCODING 181
SWIDTH 300 0
DWIDTH 5 0
BBX 6 11 0 0
BITMAP
74
B8
00
10
70
30
30
30
30
30
78
ENDCHAR

STARTCHAR lcommaaccent
ENCODING 182
SWIDTH 300 0
DWIDTH 5 0
BBX 4 17 1 -4
BITMAP
20
E0
60
60
60
60
60
60
60
60
60
60
F0
00
60
20
40
ENDCHAR

STARTCHAR caron
ENCODING 183
SWIDTH 420 0
DWIDTH 7 0
BBX 5 2 1 9
BITMAP
D8
70
ENDCHAR

STARTCHAR commaaccent
ENCODING 184
SWIDTH 333 0
DWIDTH 6 0
BBX 2 3 2 -4
BITMAP
C0
40
80
ENDCHAR

STARTCHAR scaron
ENCODING 185
SWIDTH 520 0
DWIDTH 8 0
BBX 7 11 1 0
BITMAP
6C
38
00
7C
C6
E2
78
1C
86
C6
7C
ENDCHAR

STARTCHAR emacron
ENCODING 186
SWIDTH 520 0
DWIDTH 9 0
BBX 8 11 1 0
BITMAP
3E
00
00
3C
66
C3
FF
C0
C0
61
3E
ENDCHAR

STARTCHAR gcommaaccent
ENCODING 187
SWIDTH 540 0
DWIDTH 9 0
BBX 8 16 1 -4
BITMAP
08
10
18
00
7D
E6
C6
C6
CE
7C
C0
70
7E
87
83
7E
ENDCHAR

STARTCHAR afii253
ENCODING 188
SWIDTH 278 0
DWIDTH 7 0
BBX 6 11 1 0
BITMAP
20
60
60
FC
60
60
F8
60
60
64
38
ENDCHAR

STARTCHAR afii238
ENCODING 189
SWIDTH 728 0
DWIDTH 13 0
BBX 11 11 1 0
BITMAP
E700
7980
60C0
6060
6060
6060
6060
6060
6060
66C0
F380
ENDCHAR

STARTCHAR zcaron
ENCODING 190
SWIDTH 480 0
DWIDTH 9 0
BBX 8 11 1 0
BITMAP
36
1C
00
3F
63
46
0C
18
31
63
FE
ENDCHAR

STARTCHAR afii254
ENCODING 191
SWIDTH 512 0
DWIDTH 11 0
BBX 9 11 1 -3
BITMAP
2F00
F180
6180
6180
6180
6180
6180
F180
0180
0180
0F00
ENDCHAR

STARTCHAR Amacron
ENCODING 192
SWIDTH 680 0
DWIDTH 12 0
BBX 11 15 1 0
BITMAP
1F80
0000
0000
0600
0600
0B00
0B00
0B00
1180
1180
3F80
2180
20C0
60C0
F1E0
ENDCHAR

STARTCHAR Aacute
ENCODING 193
SWIDTH 680 0
DWIDTH 12 0
BBX 11 15 1 0
BITMAP
0380
0600
0000
0600
0600
0B00
0B00
0B00
1180
1180
3F80
2180
20C0
60C0
F1E0
ENDCHAR

STARTCHAR Acircumflex
ENCODING 194
SWIDTH 680 0
DWIDTH 12 0
BBX 11 15 1 0
BITMAP
0F00
1980
0000
0600
0600
0B00
0B00
0B00
1180
1180
3F80
2180
20C0
60C0
F1E0
ENDCHAR

STARTCHAR Atilde
ENCODING 195
SWIDTH 680 0
DWIDTH 12 0
BBX 11 15 1 0
BITMAP
1E80
2F00
0000
0600
0600
0B00
0B00
0B00
1180
1180
3F80
2180
20C0
60C0
F1E0
ENDCHAR

STARTCHAR Adieresis
ENCODING 196
SWIDTH 680 0
DWIDTH 12 0
BBX 11 15 1 0
BITMAP
1980
1980
0000
0600
0600
0B00
0B00
0B00
1180
1180
3F80
2180
20C0
60C0
F1E0
ENDCHAR

STARTCHAR Aring
ENCODING 197
SWIDTH 680 0
DWIDTH 12 0
BBX 11 16 1 0
BITMAP
0600
0900
0900
0600
0600
0600
0B00
0B00
0B00
1180
1180
3F80
2180
20C0
60C0
F1E0
ENDCHAR

STARTCHAR AE
ENCODING 198
SWIDTH 1260 0
DWIDTH 21 0
BBX 20 12 0 0
BITMAP
03FFE0
019870
011830
021890
061880
07FF80
081880
181880
101810
301830
201870
F03FE0
ENDCHAR

STARTCHAR Iogonek
ENCODING 199
SWIDTH 340 0
DWIDTH 6 0
BBX 4 15 1 -3
BITMAP
F0
60
60
60
60
60
60
60
60
60
60
F0
40
40
30
ENDCHAR

STARTCHAR Ccaron
ENCODING 200
SWIDTH 740 0
DWIDTH 13 0
BBX 11 15 1 0
BITMAP
1980
0F00
0000
0F40
30E0
6060
6020
C000
C000
C000
C000
6000
6020
30C0
0F80
ENDCHAR

STARTCHAR Eacute
ENCODING 201
SWIDTH 720 0
DWIDTH 12 0
BBX 10 15 1 0
BITMAP
0700
0C00
0000
FF80
61C0
60C0
6240
6200
7E00
6200
6200
6040
60C0
61C0
FF80
ENDCHAR

STARTCHAR Eogonek
ENCODING 202
SWIDTH 720 0
DWIDTH 12 0
BBX 10 15 1 -3
BITMAP
FF80
61C0
60C0
6240
6200
7E00
6200
6200
6040
60C0
61C0
FF80
0100
0100
00C0
ENDCHAR

STARTCHAR Edieresis
ENCODING 203
SWIDTH 720 0
DWIDTH 12 0
BBX 10 15 1 0
BITMAP
3300
3300
0000
FF80
61C0
60C0
6240
6200
7E00
6200
6200
6040
60C0
61C0
FF80
ENDCHAR

STARTCHAR Edotaccent
ENCODING 204
SWIDTH 720 0
DWIDTH 12 0
BBX 10 15 1 0
BITMAP
0C00
0C00
0000
FF80
61C0
60C0
6240
6200
7E00
6200
6200
6040
60C0
61C0
FF80
ENDCHAR

STARTCHAR Iacute
ENCODING 205
SWIDTH 340 0
DWIDTH 6 0
BBX 4 15 1 0
BITMAP
70
C0
00
F0
60
60
60
60
60
60
60
60
60
60
F0
ENDCHAR

STARTCHAR Icircumflex
ENCODING 206
SWIDTH 340 0
DWIDTH 6 0
BBX 6 15 0 0
BITMAP
78
CC
00
78
30
30
30
30
30
30
30
30
30
30
78
ENDCHAR

STARTCHAR Imacron
ENCODING 207
SWIDTH 340 0
DWIDTH 6 0
BBX 6 14 0 0
BITMAP
FC
00
78
30
30
30
30
30
30
30
30
30
30
78
ENDCHAR

STARTCHAR Eth
ENCODING 208
SWIDTH 800 0
DWIDTH 14 0
BBX 12 12 1 0
BITMAP
FF00
60C0
6060
6060
6030
FC30
6030
6030
6060
6060
60C0
FF00
ENDCHAR

STARTCHAR Ncommaaccent
ENCODING 209
SWIDTH 740 0
DWIDTH 13 0
BBX 11 16 1 -4
BITMAP
F0E0
7040
5840
4C40
4C40
4640
4640
4340
41C0
41C0
40C0
E040
0000
0600
0200
0400
ENDCHAR

STARTCHAR Omacron
ENCODING 210
SWIDTH 800 0
DWIDTH 14 0
BBX 12 15 1 0
BITMAP
1F80
0000
0000
0F00
30C0
6060
6060
C030
C030
C030
C030
6060
6060
30C0
0F00
ENDCHAR

STARTCHAR Kcommaaccent
ENCODING 211
SWIDTH 720 0
DWIDTH 12 0
BBX 11 16 1 -4
BITMAP
F1E0
6180
6300
6200
6400
6C00
7C00
6600
6300
6180
61C0
F3E0
0000
0C00
0400
0800
ENDCHAR

STARTCHAR Ocircumflex
ENCODING 212
SWIDTH 800 0
DWIDTH 14 0
BBX 12 15 1 0
BITMAP
0700
0D80
0000
0F00
30C0
6060
6060
C030
C030
C030
C030
6060
6060
30C0
0F00
ENDCHAR

STARTCHAR Otilde
ENCODING 213
SWIDTH 800 0
DWIDTH 14 0
BBX 12 15 1 0
BITMAP
0E80
1700
0000
0F00
30C0
6060
6060
C030
C030
C030
C030
6060
6060
30C0
0F00
ENDCHAR

STARTCHAR Odieresis
ENCODING 214
SWIDTH 800 0
DWIDTH 14 0
BBX 12 15 1 0
BITMAP
1980
1980
0000
0F00
30C0
6060
6060
C030
C030
C030
C030
6060
6060
30C0
0F00
ENDCHAR

STARTCHAR multiply
ENCODING 215
SWIDTH 600 0
DWIDTH 10 0
BBX 7 7 2 2
BITMAP
C6
6C
38
38
6C
C6
82
ENDCHAR

STARTCHAR Oslash
ENCODING 216
SWIDTH 800 0
DWIDTH 14 0
BBX 12 12 1 0
BITMAP
0F10
30E0
6060
60E0
C130
C230
C230
C430
6860
7060
30C0
4F00
ENDCHAR

STARTCHAR Uogonek
ENCODING 217
SWIDTH 780 0
DWIDTH 13 0
BBX 11 15 1 -3
BITMAP
F0E0
6040
6040
6040
6040
6040
6040
6040
6040
6040
3080
1F00
0400
0400
0300
ENDCHAR

STARTCHAR Uacute
ENCODING 218
SWIDTH 780 0
DWIDTH 13 0
BBX 11 15 1 0
BITMAP
0700
0C00
0000
F0E0
6040
6040
6040
6040
6040
6040
6040
6040
6040
3080
1F00
ENDCHAR

STARTCHAR Ucircumflex
ENCODING 219
SWIDTH 780 0
DWIDTH 13 0
BBX 11 15 1 0
BITMAP
0F00
1980
0000
F0E0
6040
6040
6040
6040
6040
6040
6040
6040
6040
3180
1F00
ENDCHAR

STARTCHAR Udieresis
ENCODING 220
SWIDTH 780 0
DWIDTH 13 0
BBX 11 15 1 0
BITMAP
1B00
1B00
0000
F0E0
6040
6040
6040
6040
6040
6040
6040
6040
6040
3080
1F00
ENDCHAR

STARTCHAR Utilde
ENCODING 221
SWIDTH 780 0
DWIDTH 13 0
BBX 11 15 1 0
BITMAP
0E80
1700
0000
F0E0
6040
6040
6040
6040
6040
6040
6040
6040
6040
3180
1F00
ENDCHAR

STARTCHAR Umacron
ENCODING 222
SWIDTH 780 0
DWIDTH 13 0
BBX 11 15 1 0
BITMAP
1F80
0000
0000
F0E0
6040
6040
6040
6040
6040
6040
6040
6040
6040
3180
1F00
ENDCHAR

STARTCHAR germandbls
ENCODING 223
SWIDTH 660 0
DWIDTH 11 0
BBX 10 12 1 0
BITMAP
0E00
3300
6380
6700
E400
6600
6380
60C0
60C0
64C0
6DC0
E780
ENDCHAR

STARTCHAR amacron
ENCODING 224
SWIDTH 580 0
DWIDTH 10 0
BBX 9 11 1 0
BITMAP
3E00
0000
0000
3C00
6600
4600
1E00
6600
C600
CE00
7B80
ENDCHAR

STARTCHAR aacute
ENCODING 225
SWIDTH 580 0
DWIDTH 10 0
BBX 9 11 1 0
BITMAP
0E00
1800
0000
3C00
6600
4600
1E00
6600
C600
CE00
7B80
ENDCHAR

STARTCHAR acircumflex
ENCODING 226
SWIDTH 580 0
DWIDTH 10 0
BBX 9 11 1 0
BITMAP
1C00
3600
0000
3C00
6600
4600
1E00
6600
C600
CE00
7B80
ENDCHAR

STARTCHAR atilde
ENCODING 227
SWIDTH 580 0
DWIDTH 10 0
BBX 9 11 1 0
BITMAP
3A00
5C00
0000
3C00
6600
4600
1E00
6600
C600
CE00
7B80
ENDCHAR

STARTCHAR adieresis
ENCODING 228
SWIDTH 580 0
DWIDTH 10 0
BBX 9 11 1 0
BITMAP
6600
6600
0000
3C00
6600
4600
1E00
6600
C600
CE00
7B80
ENDCHAR

STARTCHAR aring
ENCODING 229
SWIDTH 580 0
DWIDTH 10 0
BBX 9 12 1 0
BITMAP
1800
2400
2400
1800
3C00
6600
4600
1E00
6600
C600
CE00
7B80
ENDCHAR

STARTCHAR ae
ENCODING 230
SWIDTH 860 0
DWIDTH 15 0
BBX 14 8 1 0
BITMAP
3CF0
6398
430C
1FFC
6300
C300
C584
78F8
ENDCHAR

STARTCHAR iogonek
ENCODING 231
SWIDTH 300 0
DWIDTH 5 0
BBX 4 16 1 -3
BITMAP
60
60
00
00
00
20
E0
60
60
60
60
60
F0
40
40
30
ENDCHAR

STARTCHAR ccaron
ENCODING 232
SWIDTH 520 0
DWIDTH 9 0
BBX 8 11 1 0
BITMAP
1C
36
00
3E
63
C1
C0
C0
C0
61
3E
ENDCHAR

STARTCHAR eacute
ENCODING 233
SWIDTH 520 0
DWIDTH 9 0
BBX 8 11 1 0
BITMAP
1C
30
00
3C
66
C3
FF
C0
C0
61
3E
ENDCHAR

STARTCHAR eogonek
ENCODING 234
SWIDTH 520 0
DWIDTH 9 0
BBX 8 11 1 -3
BITMAP
3C
66
C3
FF
C0
C0
61
3E
08
08
06
ENDCHAR

STARTCHAR edieresis
ENCODING 235
SWIDTH 520 0
DWIDTH 9 0
BBX 8 11 1 0
BITMAP
36
36
00
3C
66
C3
FF
C0
C0
61
3E
ENDCHAR

STARTCHAR edotaccent
ENCODING 236
SWIDTH 520 0
DWIDTH 9 0
BBX 8 11 1 0
BITMAP
18
18
00
3C
66
C3
FF
C0
C0
61
3E
ENDCHAR

STARTCHAR iacute
ENCODING 237
SWIDTH 300 0
DWIDTH 5 0
BBX 5 11 1 0
BITMAP
38
60
00
20
E0
60
60
60
60
60
F0
ENDCHAR

STARTCHAR icircumflex
ENCODING 238
SWIDTH 300 0
DWIDTH 5 0
BBX 5 11 0 0
BITMAP
70
D8
00
10
70
30
30
30
30
30
78
ENDCHAR

STARTCHAR imacron
ENCODING 239
SWIDTH 300 0
DWIDTH 5 0
BBX 4 11 1 0
BITMAP
F0
00
00
20
E0
60
60
60
60
60
F0
ENDCHAR

STARTCHAR dcroat
ENCODING 240
SWIDTH 620 0
DWIDTH 11 0
BBX 10 13 1 0
BITMAP
0080
0380
0180
07C0
0180
3D80
6380
C180
C180
C180
C180
6380
3DC0
ENDCHAR

STARTCHAR ncommaaccent
ENCODING 241
SWIDTH 660 0
DWIDTH 11 0
BBX 10 12 1 -4
BITMAP
2F00
F180
6180
6180
6180
6180
6180
F3C0
0000
0C00
0400
0800
ENDCHAR

STARTCHAR omacron
ENCODING 242
SWIDTH 560 0
DWIDTH 10 0
BBX 9 11 1 0
BITMAP
3E00
0000
0000
3E00
6300
C180
C180
C180
C180
6300
3E00
ENDCHAR

STARTCHAR kcommaaccent
ENCODING 243
SWIDTH 620 0
DWIDTH 11 0
BBX 10 17 1 -4
BITMAP
2000
E000
6000
6000
6000
61C0
6300
6600
6C00
7600
6300
6180
F3C0
0000
0C00
0400
0800
ENDCHAR

STARTCHAR ocircumflex
ENCODING 244
SWIDTH 560 0
DWIDTH 10 0
BBX 9 11 1 0
BITMAP
1C00
3600
0000
3E00
6300
C180
C180
C180
C180
6300
3E00
ENDCHAR

STARTCHAR otilde
ENCODING 245
SWIDTH 560 0
DWIDTH 10 0
BBX 9 11 1 0
BITMAP
1D00
2E00
0000
3E00
6300
C180
C180
C180
C180
6300
3E00
ENDCHAR

STARTCHAR odieresis
ENCODING 246
SWIDTH 560 0
DWIDTH 10 0
BBX 9 11 1 0
BITMAP
3600
3600
0000
3E00
6300
C180
C180
C180
C180
6300
3E00
ENDCHAR

STARTCHAR divide
ENCODING 247
SWIDTH 600 0
DWIDTH 10 0
BBX 8 7 1 2
BITMAP
18
18
00
FF
00
18
18
ENDCHAR

STARTCHAR oslash
ENCODING 248
SWIDTH 560 0
DWIDTH 10 0
BBX 9 8 1 0
BITMAP
3E80
6300
C580
C980
D180
E180
6300
BE00
ENDCHAR

STARTCHAR uogonek
ENCODING 249
SWIDTH 680 0
DWIDTH 11 0
BBX 10 11 1 -3
BITMAP
E380
6180
6180
6180
6180
6180
6380
3DC0
0100
0100
00C0
ENDCHAR

STARTCHAR uacute
ENCODING 250
SWIDTH 680 0
DWIDTH 11 0
BBX 10 11 1 0
BITMAP
0700
0C00
0000
E380
6180
6180
6180
6180
6180
6380
3DC0
ENDCHAR

STARTCHAR ucircumflex
ENCODING 251
SWIDTH 680 0
DWIDTH 11 0
BBX 10 11 1 0
BITMAP
1E00
3300
0000
E380
6180
6180
6180
6180
6180
6380
3DC0
ENDCHAR

STARTCHAR udieresis
ENCODING 252
SWIDTH 680 0
DWIDTH 11 0
BBX 10 11 1 0
BITMAP
3300
3300
0000
E380
6180
6180
6180
6180
6180
6380
3DC0
ENDCHAR

STARTCHAR utilde
ENCODING 253
SWIDTH 680 0
DWIDTH 11 0
BBX 10 11 1 0
BITMAP
1D00
2E00
0000
E380
6180
6180
6180
6180
6180
6380
3DC0
ENDCHAR

STARTCHAR umacron
ENCODING 254
SWIDTH 680 0
DWIDTH 11 0
BBX 10 11 1 0
BITMAP
3F00
0000
0000
E380
6180
6180
6180
6180
6180
6380
3DC0
ENDCHAR

STARTCHAR dotaccent
ENCODING 255
SWIDTH 260 0
DWIDTH 4 0
BBX 2 2 1 9
BITMAP
C0
C0
ENDCHAR
ENDFONT
